<svg xmlns="http://www.w3.org/2000/svg" viewBox="0 0 640 360" role="img" aria-label="Rock canyon and river">
  <rect width="640" height="360" fill="#edf6f1"/>
  <path d="M0 95c112 52 168 86 244 84 82-2 141-56 242-42 65 9 108 45 154 67v156H0z" fill="#789083"/>
  <path d="M0 185c86-32 153-34 230-5 78 30 149 18 219-5 83-27 135-6 191 24v161H0z" fill="#4f6e63"/>
  <path d="M164 164c-38 54-42 107-12 196h102c-48-72-54-131-19-177zM418 155c43 63 45 126 4 205h105c31-95 17-160-43-208z" fill="#31483f"/>
  <path d="M286 169c28 54 18 111-28 191h135c-46-80-56-137-28-191z" fill="#d9e5df"/>
  <path d="M302 184c22 47 12 96-28 176h78c-35-82-45-130-28-176z" fill="#4fa5b5"/>
</svg>
